# Created by Kenney (www.kenney.nl)

mtllib CosaCuqui.mtl

v 2 0 2
v 2 0 -2
v 1 0 2
v 1 0 -2
v 1 3 -2
v 1 3 2
v 2 3 -2
v 2 3 2
v 1 2 2
v 1 2 -2
v -2 2 2
v -2 2 -2
v -2 3 -2
v -2 3 2
v 2 2 2
v 2 2 -2
v -1 0 2
v -1 0 -2
v -2 0 2
v -2 0 -2
v -1 2 -2
v -1 2 2
v 2 -1 3.5
v 2 -1 -3.5
v -2 -1 3.5
v -2 -1 -3.5
v -2 0 -3.5
v -2 0 3.5
v 2 0 -3.5
v 2 0 3.5
v 1 -2 1
v 1 -2 -1
v -1 -2 1
v -1 -2 -1
v -1 -1 -1
v -1 -1 1
v 1 -1 -1
v 1 -1 1

vn 0 -1 0
vn -1 0 0
vn 0 0 -1
vn 0 0 1
vn 1 0 0
vn 0 1 0

vt 0 0

usemtl color8

f 3/1/1 2/1/1 1/1/1
f 2/1/1 3/1/1 4/1/1
f 3/1/2 5/1/2 4/1/2
f 5/1/2 3/1/2 6/1/2
f 5/1/3 2/1/3 4/1/3
f 2/1/3 5/1/3 7/1/3
f 8/1/4 3/1/4 1/1/4
f 3/1/4 8/1/4 6/1/4
f 8/1/5 2/1/5 7/1/5
f 2/1/5 8/1/5 1/1/5
f 5/1/6 8/1/6 7/1/6
f 8/1/6 5/1/6 6/1/6
f 11/1/1 10/1/1 9/1/1
f 10/1/1 11/1/1 12/1/1
f 11/1/2 13/1/2 12/1/2
f 13/1/2 11/1/2 14/1/2
f 13/1/3 10/1/3 12/1/3
f 10/1/3 13/1/3 5/1/3
f 6/1/4 11/1/4 9/1/4
f 11/1/4 6/1/4 14/1/4
f 6/1/5 10/1/5 5/1/5
f 10/1/5 6/1/5 9/1/5
f 13/1/6 6/1/6 5/1/6
f 6/1/6 13/1/6 14/1/6
f 11/1/1 16/1/1 15/1/1
f 16/1/1 11/1/1 12/1/1
f 11/1/2 13/1/2 12/1/2
f 13/1/2 11/1/2 14/1/2
f 13/1/3 16/1/3 12/1/3
f 16/1/3 13/1/3 7/1/3
f 8/1/4 11/1/4 15/1/4
f 11/1/4 8/1/4 14/1/4
f 8/1/5 16/1/5 7/1/5
f 16/1/5 8/1/5 15/1/5
f 13/1/6 8/1/6 7/1/6
f 8/1/6 13/1/6 14/1/6
f 19/1/1 18/1/1 17/1/1
f 18/1/1 19/1/1 20/1/1
f 19/1/2 12/1/2 20/1/2
f 12/1/2 19/1/2 11/1/2
f 12/1/3 18/1/3 20/1/3
f 18/1/3 12/1/3 21/1/3
f 22/1/4 19/1/4 17/1/4
f 19/1/4 22/1/4 11/1/4
f 22/1/5 18/1/5 21/1/5
f 18/1/5 22/1/5 17/1/5
f 12/1/6 22/1/6 21/1/6
f 22/1/6 12/1/6 11/1/6
f 25/1/1 24/1/1 23/1/1
f 24/1/1 25/1/1 26/1/1
f 25/1/2 27/1/2 26/1/2
f 27/1/2 25/1/2 28/1/2
f 27/1/3 24/1/3 26/1/3
f 24/1/3 27/1/3 29/1/3
f 30/1/4 25/1/4 23/1/4
f 25/1/4 30/1/4 28/1/4
f 30/1/5 24/1/5 29/1/5
f 24/1/5 30/1/5 23/1/5
f 27/1/6 30/1/6 29/1/6
f 30/1/6 27/1/6 28/1/6

usemtl color10

f 33/1/1 32/1/1 31/1/1
f 32/1/1 33/1/1 34/1/1
f 33/1/2 35/1/2 34/1/2
f 35/1/2 33/1/2 36/1/2
f 35/1/3 32/1/3 34/1/3
f 32/1/3 35/1/3 37/1/3
f 38/1/4 33/1/4 31/1/4
f 33/1/4 38/1/4 36/1/4
f 38/1/5 32/1/5 37/1/5
f 32/1/5 38/1/5 31/1/5
f 35/1/6 38/1/6 37/1/6
f 38/1/6 35/1/6 36/1/6

