# Created by Kenney (www.kenney.nl)

mtllib Rosa.mtl

v 7 6 2.5
v 7 6 -2.5
v 4 6 2.5
v 4 6 -2.5
v 4 9 -2.5
v 4 9 2.5
v 7 9 -2.5
v 7 9 2.5
v 4 8 2.5
v 4 8 -2.5
v 3 8 2.5
v 3 8 -2.5
v 3 9 -2.5
v 3 9 2.5
v 3 5 2.5
v 3 5 -2.5
v 2 5 2.5
v 2 5 -2.5
v 2 8 -2.5
v 2 8 2.5
v 0 5 2.5
v 0 5 -2.5
v 0 7 -2.5
v 0 7 2.5
v 2 7 -2.5
v 2 7 2.5
v 8 4 2.5
v 8 4 -2.5
v 7 4 2.5
v 7 4 -2.5
v 8 6 -2.5
v 8 6 2.5
v 6 5 0.5
v 6 5 -0.5
v 5 5 0.5
v 5 5 -0.5
v 5 6 -0.5
v 5 6 0.5
v 6 6 -0.5
v 6 6 0.5
v 5 3 2.5
v 5 3 -2.5
v 4 3 2.5
v 4 3 -2.5
v 5 6 -2.5
v 5 6 2.5
v 4 5 2.5
v 4 5 -2.5
v 3 6 -2.5
v 3 6 2.5
v 7 2 2.5
v 7 2 -2.5
v 6 2 2.5
v 6 2 -2.5
v 6 5 -2.5
v 6 5 2.5
v 7 5 -2.5
v 7 5 2.5
v 4 4 2.5
v 4 4 -2.5
v 3 4 2.5
v 3 4 -2.5
v 1 4 2.5
v 1 4 -2.5
v 0 4 2.5
v 0 4 -2.5
v 1 5 -2.5
v 1 5 2.5
v 8 3 0.5
v 8 3 -0.5
v 7 3 0.5
v 7 3 -0.5
v 7 4 -0.5
v 7 4 0.5
v 8 4 -0.5
v 8 4 0.5
v 6 3 2.5
v 6 3 -2.5
v 5 4 -2.5
v 5 4 2.5
v 6 4 -2.5
v 6 4 2.5
v 4 3 0.5
v 4 3 -0.5
v 3 3 0.5
v 3 3 -0.5
v 3 4 -0.5
v 3 4 0.5
v 4 4 -0.5
v 4 4 0.5
v 3 1 2.5
v 3 1 -2.5
v 2 1 2.5
v 2 1 -2.5
v 2 4 -2.5
v 2 4 2.5
v 2 3 2.5
v 2 3 -2.5
v 1 3 2.5
v 1 3 -2.5
v 6 2 0.5
v 6 2 -0.5
v 5 2 0.5
v 5 2 -0.5
v 5 3 -0.5
v 5 3 0.5
v 6 3 -0.5
v 6 3 0.5
v 4 1 2.5
v 4 1 -2.5
v 3 3 -2.5
v 3 3 2.5
v 2 2 2.5
v 2 2 -2.5
v 1 2 2.5
v 1 2 -2.5
v -5 6 0.5
v -5 6 -0.5
v -6 6 0.5
v -6 6 -0.5
v -6 7 -0.5
v -6 7 0.5
v -5 7 -0.5
v -5 7 0.5
v -6 4 0.5
v -6 4 -0.5
v -7 4 0.5
v -7 4 -0.5
v -7 6 -0.5
v -7 6 0.5
v -3 1 0.5
v -3 1 -0.5
v -5 1 0.5
v -5 1 -0.5
v -5 5 -0.5
v -5 5 0.5
v -3 5 -0.5
v -3 5 0.5
v -5 4 0.5
v -5 4 -0.5
v -6 5 -0.5
v -6 5 0.5
v 1 2 0.5
v 1 2 -0.5
v 0 2 0.5
v 0 2 -0.5
v 0 4 -0.5
v 0 4 0.5
v 1 4 -0.5
v 1 4 0.5
v -2 1 0.5
v -2 1 -0.5
v -3 4 -0.5
v -3 4 0.5
v -2 4 -0.5
v -2 4 0.5
v -5 2 0.5
v -5 2 -0.5
v -6 2 0.5
v -6 2 -0.5
v 0 0 0.5
v 0 0 -0.5
v -1 0 0.5
v -1 0 -0.5
v -1 3 -0.5
v -1 3 0.5
v 0 3 -0.5
v 0 3 0.5
v -1 -5 0.5
v -1 -5 -0.5
v -2 -5 0.5
v -2 -5 -0.5
v -1 1 -0.5
v -1 1 0.5
v 5 -3 0.5
v 5 -3 -0.5
v 2 -3 0.5
v 2 -3 -0.5
v 2 -2 -0.5
v 2 -2 0.5
v 5 -2 -0.5
v 5 -2 0.5
v -3 -4 0.5
v -3 -4 -0.5
v -4 -4 0.5
v -4 -4 -0.5
v -4 -2 -0.5
v -4 -2 0.5
v -3 -2 -0.5
v -3 -2 0.5
v -4 -3 0.5
v -4 -3 -0.5
v -5 -3 0.5
v -5 -3 -0.5
v -5 -2 -0.5
v -5 -2 0.5
v 6 -4 0.5
v 6 -4 -0.5
v 5 -4 0.5
v 5 -4 -0.5
v 6 -3 -0.5
v 6 -3 0.5
v 3 -4 0.5
v 3 -4 -0.5
v 0 -4 0.5
v 0 -4 -0.5
v 0 -3 -0.5
v 0 -3 0.5
v 3 -3 -0.5
v 3 -3 0.5
v -2 -4 0.5
v -2 -4 -0.5
v -3 -3 -0.5
v -3 -3 0.5
v -2 -3 -0.5
v -2 -3 0.5
v 2 -5 0.5
v 2 -5 -0.5
v 0 -5 0.5
v 0 -5 -0.5
v 2 -4 -0.5
v 2 -4 0.5
v 0 -7 0.5
v 0 -7 -0.5
v -1 -7 0.5
v -1 -7 -0.5

vn 0 -1 0
vn -1 0 0
vn 0 0 -1
vn 0 0 1
vn 1 0 0
vn 0 1 0

vt 0 0

usemtl color8

f 3/1/1 2/1/1 1/1/1
f 2/1/1 3/1/1 4/1/1
f 3/1/2 5/1/2 4/1/2
f 5/1/2 3/1/2 6/1/2
f 5/1/3 2/1/3 4/1/3
f 2/1/3 5/1/3 7/1/3
f 8/1/4 3/1/4 1/1/4
f 3/1/4 8/1/4 6/1/4
f 8/1/5 2/1/5 7/1/5
f 2/1/5 8/1/5 1/1/5
f 5/1/6 8/1/6 7/1/6
f 8/1/6 5/1/6 6/1/6
f 11/1/1 10/1/1 9/1/1
f 10/1/1 11/1/1 12/1/1
f 11/1/2 13/1/2 12/1/2
f 13/1/2 11/1/2 14/1/2
f 13/1/3 10/1/3 12/1/3
f 10/1/3 13/1/3 5/1/3
f 6/1/4 11/1/4 9/1/4
f 11/1/4 6/1/4 14/1/4
f 6/1/5 10/1/5 5/1/5
f 10/1/5 6/1/5 9/1/5
f 13/1/6 6/1/6 5/1/6
f 6/1/6 13/1/6 14/1/6
f 17/1/1 16/1/1 15/1/1
f 16/1/1 17/1/1 18/1/1
f 17/1/2 19/1/2 18/1/2
f 19/1/2 17/1/2 20/1/2
f 19/1/3 16/1/3 18/1/3
f 16/1/3 19/1/3 12/1/3
f 11/1/4 17/1/4 15/1/4
f 17/1/4 11/1/4 20/1/4
f 11/1/5 16/1/5 12/1/5
f 16/1/5 11/1/5 15/1/5
f 19/1/6 11/1/6 12/1/6
f 11/1/6 19/1/6 20/1/6
f 21/1/1 18/1/1 17/1/1
f 18/1/1 21/1/1 22/1/1
f 21/1/2 23/1/2 22/1/2
f 23/1/2 21/1/2 24/1/2
f 23/1/3 18/1/3 22/1/3
f 18/1/3 23/1/3 25/1/3
f 26/1/4 21/1/4 17/1/4
f 21/1/4 26/1/4 24/1/4
f 26/1/5 18/1/5 25/1/5
f 18/1/5 26/1/5 17/1/5
f 23/1/6 26/1/6 25/1/6
f 26/1/6 23/1/6 24/1/6
f 29/1/1 28/1/1 27/1/1
f 28/1/1 29/1/1 30/1/1
f 29/1/2 2/1/2 30/1/2
f 2/1/2 29/1/2 1/1/2
f 2/1/3 28/1/3 30/1/3
f 28/1/3 2/1/3 31/1/3
f 32/1/4 29/1/4 27/1/4
f 29/1/4 32/1/4 1/1/4
f 32/1/5 28/1/5 31/1/5
f 28/1/5 32/1/5 27/1/5
f 2/1/6 32/1/6 31/1/6
f 32/1/6 2/1/6 1/1/6
f 35/1/1 34/1/1 33/1/1
f 34/1/1 35/1/1 36/1/1
f 35/1/2 37/1/2 36/1/2
f 37/1/2 35/1/2 38/1/2
f 37/1/3 34/1/3 36/1/3
f 34/1/3 37/1/3 39/1/3
f 40/1/4 35/1/4 33/1/4
f 35/1/4 40/1/4 38/1/4
f 40/1/5 34/1/5 39/1/5
f 34/1/5 40/1/5 33/1/5
f 37/1/6 40/1/6 39/1/6
f 40/1/6 37/1/6 38/1/6
f 43/1/1 42/1/1 41/1/1
f 42/1/1 43/1/1 44/1/1
f 43/1/2 4/1/2 44/1/2
f 4/1/2 43/1/2 3/1/2
f 4/1/3 42/1/3 44/1/3
f 42/1/3 4/1/3 45/1/3
f 46/1/4 43/1/4 41/1/4
f 43/1/4 46/1/4 3/1/4
f 46/1/5 42/1/5 45/1/5
f 42/1/5 46/1/5 41/1/5
f 4/1/6 46/1/6 45/1/6
f 46/1/6 4/1/6 3/1/6
f 15/1/1 48/1/1 47/1/1
f 48/1/1 15/1/1 16/1/1
f 15/1/2 49/1/2 16/1/2
f 49/1/2 15/1/2 50/1/2
f 49/1/3 48/1/3 16/1/3
f 48/1/3 49/1/3 4/1/3
f 3/1/4 15/1/4 47/1/4
f 15/1/4 3/1/4 50/1/4
f 3/1/5 48/1/5 4/1/5
f 48/1/5 3/1/5 47/1/5
f 49/1/6 3/1/6 4/1/6
f 3/1/6 49/1/6 50/1/6
f 53/1/1 52/1/1 51/1/1
f 52/1/1 53/1/1 54/1/1
f 53/1/2 55/1/2 54/1/2
f 55/1/2 53/1/2 56/1/2
f 55/1/3 52/1/3 54/1/3
f 52/1/3 55/1/3 57/1/3
f 58/1/4 53/1/4 51/1/4
f 53/1/4 58/1/4 56/1/4
f 58/1/5 52/1/5 57/1/5
f 52/1/5 58/1/5 51/1/5
f 55/1/6 58/1/6 57/1/6
f 58/1/6 55/1/6 56/1/6
f 61/1/1 60/1/1 59/1/1
f 60/1/1 61/1/1 62/1/1
f 61/1/2 16/1/2 62/1/2
f 16/1/2 61/1/2 15/1/2
f 16/1/3 60/1/3 62/1/3
f 60/1/3 16/1/3 48/1/3
f 47/1/4 61/1/4 59/1/4
f 61/1/4 47/1/4 15/1/4
f 47/1/5 60/1/5 48/1/5
f 60/1/5 47/1/5 59/1/5
f 16/1/6 47/1/6 48/1/6
f 47/1/6 16/1/6 15/1/6
f 65/1/1 64/1/1 63/1/1
f 64/1/1 65/1/1 66/1/1
f 65/1/2 22/1/2 66/1/2
f 22/1/2 65/1/2 21/1/2
f 22/1/3 64/1/3 66/1/3
f 64/1/3 22/1/3 67/1/3
f 68/1/4 65/1/4 63/1/4
f 65/1/4 68/1/4 21/1/4
f 68/1/5 64/1/5 67/1/5
f 64/1/5 68/1/5 63/1/5
f 22/1/6 68/1/6 67/1/6
f 68/1/6 22/1/6 21/1/6
f 71/1/1 70/1/1 69/1/1
f 70/1/1 71/1/1 72/1/1
f 71/1/2 73/1/2 72/1/2
f 73/1/2 71/1/2 74/1/2
f 73/1/3 70/1/3 72/1/3
f 70/1/3 73/1/3 75/1/3
f 76/1/4 71/1/4 69/1/4
f 71/1/4 76/1/4 74/1/4
f 76/1/5 70/1/5 75/1/5
f 70/1/5 76/1/5 69/1/5
f 73/1/6 76/1/6 75/1/6
f 76/1/6 73/1/6 74/1/6
f 41/1/1 78/1/1 77/1/1
f 78/1/1 41/1/1 42/1/1
f 41/1/2 79/1/2 42/1/2
f 79/1/2 41/1/2 80/1/2
f 79/1/3 78/1/3 42/1/3
f 78/1/3 79/1/3 81/1/3
f 82/1/4 41/1/4 77/1/4
f 41/1/4 82/1/4 80/1/4
f 82/1/5 78/1/5 81/1/5
f 78/1/5 82/1/5 77/1/5
f 79/1/6 82/1/6 81/1/6
f 82/1/6 79/1/6 80/1/6
f 85/1/1 84/1/1 83/1/1
f 84/1/1 85/1/1 86/1/1
f 85/1/2 87/1/2 86/1/2
f 87/1/2 85/1/2 88/1/2
f 87/1/3 84/1/3 86/1/3
f 84/1/3 87/1/3 89/1/3
f 90/1/4 85/1/4 83/1/4
f 85/1/4 90/1/4 88/1/4
f 90/1/5 84/1/5 89/1/5
f 84/1/5 90/1/5 83/1/5
f 87/1/6 90/1/6 89/1/6
f 90/1/6 87/1/6 88/1/6
f 93/1/1 92/1/1 91/1/1
f 92/1/1 93/1/1 94/1/1
f 93/1/2 95/1/2 94/1/2
f 95/1/2 93/1/2 96/1/2
f 95/1/3 92/1/3 94/1/3
f 92/1/3 95/1/3 62/1/3
f 61/1/4 93/1/4 91/1/4
f 93/1/4 61/1/4 96/1/4
f 61/1/5 92/1/5 62/1/5
f 92/1/5 61/1/5 91/1/5
f 95/1/6 61/1/6 62/1/6
f 61/1/6 95/1/6 96/1/6
f 99/1/1 98/1/1 97/1/1
f 98/1/1 99/1/1 100/1/1
f 99/1/2 64/1/2 100/1/2
f 64/1/2 99/1/2 63/1/2
f 64/1/3 98/1/3 100/1/3
f 98/1/3 64/1/3 95/1/3
f 96/1/4 99/1/4 97/1/4
f 99/1/4 96/1/4 63/1/4
f 96/1/5 98/1/5 95/1/5
f 98/1/5 96/1/5 97/1/5
f 64/1/6 96/1/6 95/1/6
f 96/1/6 64/1/6 63/1/6
f 103/1/1 102/1/1 101/1/1
f 102/1/1 103/1/1 104/1/1
f 103/1/2 105/1/2 104/1/2
f 105/1/2 103/1/2 106/1/2
f 105/1/3 102/1/3 104/1/3
f 102/1/3 105/1/3 107/1/3
f 108/1/4 103/1/4 101/1/4
f 103/1/4 108/1/4 106/1/4
f 108/1/5 102/1/5 107/1/5
f 102/1/5 108/1/5 101/1/5
f 105/1/6 108/1/6 107/1/6
f 108/1/6 105/1/6 106/1/6
f 91/1/1 110/1/1 109/1/1
f 110/1/1 91/1/1 92/1/1
f 91/1/2 111/1/2 92/1/2
f 111/1/2 91/1/2 112/1/2
f 111/1/3 110/1/3 92/1/3
f 110/1/3 111/1/3 44/1/3
f 43/1/4 91/1/4 109/1/4
f 91/1/4 43/1/4 112/1/4
f 43/1/5 110/1/5 44/1/5
f 110/1/5 43/1/5 109/1/5
f 111/1/6 43/1/6 44/1/6
f 43/1/6 111/1/6 112/1/6
f 115/1/1 114/1/1 113/1/1
f 114/1/1 115/1/1 116/1/1
f 115/1/2 100/1/2 116/1/2
f 100/1/2 115/1/2 99/1/2
f 100/1/3 114/1/3 116/1/3
f 114/1/3 100/1/3 98/1/3
f 97/1/4 115/1/4 113/1/4
f 115/1/4 97/1/4 99/1/4
f 97/1/5 114/1/5 98/1/5
f 114/1/5 97/1/5 113/1/5
f 100/1/6 97/1/6 98/1/6
f 97/1/6 100/1/6 99/1/6
f 11/1/1 10/1/1 9/1/1
f 10/1/1 11/1/1 12/1/1
f 11/1/2 13/1/2 12/1/2
f 13/1/2 11/1/2 14/1/2
f 13/1/3 10/1/3 12/1/3
f 10/1/3 13/1/3 5/1/3
f 6/1/4 11/1/4 9/1/4
f 11/1/4 6/1/4 14/1/4
f 6/1/5 10/1/5 5/1/5
f 10/1/5 6/1/5 9/1/5
f 13/1/6 6/1/6 5/1/6
f 6/1/6 13/1/6 14/1/6
f 15/1/1 48/1/1 47/1/1
f 48/1/1 15/1/1 16/1/1
f 15/1/2 49/1/2 16/1/2
f 49/1/2 15/1/2 50/1/2
f 49/1/3 48/1/3 16/1/3
f 48/1/3 49/1/3 4/1/3
f 3/1/4 15/1/4 47/1/4
f 15/1/4 3/1/4 50/1/4
f 3/1/5 48/1/5 4/1/5
f 48/1/5 3/1/5 47/1/5
f 49/1/6 3/1/6 4/1/6
f 3/1/6 49/1/6 50/1/6
f 99/1/1 98/1/1 97/1/1
f 98/1/1 99/1/1 100/1/1
f 99/1/2 64/1/2 100/1/2
f 64/1/2 99/1/2 63/1/2
f 64/1/3 98/1/3 100/1/3
f 98/1/3 64/1/3 95/1/3
f 96/1/4 99/1/4 97/1/4
f 99/1/4 96/1/4 63/1/4
f 96/1/5 98/1/5 95/1/5
f 98/1/5 96/1/5 97/1/5
f 64/1/6 96/1/6 95/1/6
f 96/1/6 64/1/6 63/1/6

usemtl color6

f 119/1/1 118/1/1 117/1/1
f 118/1/1 119/1/1 120/1/1
f 119/1/2 121/1/2 120/1/2
f 121/1/2 119/1/2 122/1/2
f 121/1/3 118/1/3 120/1/3
f 118/1/3 121/1/3 123/1/3
f 124/1/4 119/1/4 117/1/4
f 119/1/4 124/1/4 122/1/4
f 124/1/5 118/1/5 123/1/5
f 118/1/5 124/1/5 117/1/5
f 121/1/6 124/1/6 123/1/6
f 124/1/6 121/1/6 122/1/6
f 127/1/1 126/1/1 125/1/1
f 126/1/1 127/1/1 128/1/1
f 127/1/2 129/1/2 128/1/2
f 129/1/2 127/1/2 130/1/2
f 129/1/3 126/1/3 128/1/3
f 126/1/3 129/1/3 120/1/3
f 119/1/4 127/1/4 125/1/4
f 127/1/4 119/1/4 130/1/4
f 119/1/5 126/1/5 120/1/5
f 126/1/5 119/1/5 125/1/5
f 129/1/6 119/1/6 120/1/6
f 119/1/6 129/1/6 130/1/6
f 133/1/1 132/1/1 131/1/1
f 132/1/1 133/1/1 134/1/1
f 133/1/2 135/1/2 134/1/2
f 135/1/2 133/1/2 136/1/2
f 135/1/3 132/1/3 134/1/3
f 132/1/3 135/1/3 137/1/3
f 138/1/4 133/1/4 131/1/4
f 133/1/4 138/1/4 136/1/4
f 138/1/5 132/1/5 137/1/5
f 132/1/5 138/1/5 131/1/5
f 135/1/6 138/1/6 137/1/6
f 138/1/6 135/1/6 136/1/6
f 125/1/1 140/1/1 139/1/1
f 140/1/1 125/1/1 126/1/1
f 125/1/2 141/1/2 126/1/2
f 141/1/2 125/1/2 142/1/2
f 141/1/3 140/1/3 126/1/3
f 140/1/3 141/1/3 135/1/3
f 136/1/4 125/1/4 139/1/4
f 125/1/4 136/1/4 142/1/4
f 136/1/5 140/1/5 135/1/5
f 140/1/5 136/1/5 139/1/5
f 141/1/6 136/1/6 135/1/6
f 136/1/6 141/1/6 142/1/6
f 145/1/1 144/1/1 143/1/1
f 144/1/1 145/1/1 146/1/1
f 145/1/2 147/1/2 146/1/2
f 147/1/2 145/1/2 148/1/2
f 147/1/3 144/1/3 146/1/3
f 144/1/3 147/1/3 149/1/3
f 150/1/4 145/1/4 143/1/4
f 145/1/4 150/1/4 148/1/4
f 150/1/5 144/1/5 149/1/5
f 144/1/5 150/1/5 143/1/5
f 147/1/6 150/1/6 149/1/6
f 150/1/6 147/1/6 148/1/6
f 131/1/1 152/1/1 151/1/1
f 152/1/1 131/1/1 132/1/1
f 131/1/2 153/1/2 132/1/2
f 153/1/2 131/1/2 154/1/2
f 153/1/3 152/1/3 132/1/3
f 152/1/3 153/1/3 155/1/3
f 156/1/4 131/1/4 151/1/4
f 131/1/4 156/1/4 154/1/4
f 156/1/5 152/1/5 155/1/5
f 152/1/5 156/1/5 151/1/5
f 153/1/6 156/1/6 155/1/6
f 156/1/6 153/1/6 154/1/6
f 159/1/1 158/1/1 157/1/1
f 158/1/1 159/1/1 160/1/1
f 159/1/2 126/1/2 160/1/2
f 126/1/2 159/1/2 125/1/2
f 126/1/3 158/1/3 160/1/3
f 158/1/3 126/1/3 140/1/3
f 139/1/4 159/1/4 157/1/4
f 159/1/4 139/1/4 125/1/4
f 139/1/5 158/1/5 140/1/5
f 158/1/5 139/1/5 157/1/5
f 126/1/6 139/1/6 140/1/6
f 139/1/6 126/1/6 125/1/6
f 163/1/1 162/1/1 161/1/1
f 162/1/1 163/1/1 164/1/1
f 163/1/2 165/1/2 164/1/2
f 165/1/2 163/1/2 166/1/2
f 165/1/3 162/1/3 164/1/3
f 162/1/3 165/1/3 167/1/3
f 168/1/4 163/1/4 161/1/4
f 163/1/4 168/1/4 166/1/4
f 168/1/5 162/1/5 167/1/5
f 162/1/5 168/1/5 161/1/5
f 165/1/6 168/1/6 167/1/6
f 168/1/6 165/1/6 166/1/6
f 171/1/1 170/1/1 169/1/1
f 170/1/1 171/1/1 172/1/1
f 171/1/2 152/1/2 172/1/2
f 152/1/2 171/1/2 151/1/2
f 152/1/3 170/1/3 172/1/3
f 170/1/3 152/1/3 173/1/3
f 174/1/4 171/1/4 169/1/4
f 171/1/4 174/1/4 151/1/4
f 174/1/5 170/1/5 173/1/5
f 170/1/5 174/1/5 169/1/5
f 152/1/6 174/1/6 173/1/6
f 174/1/6 152/1/6 151/1/6
f 177/1/1 176/1/1 175/1/1
f 176/1/1 177/1/1 178/1/1
f 177/1/2 179/1/2 178/1/2
f 179/1/2 177/1/2 180/1/2
f 179/1/3 176/1/3 178/1/3
f 176/1/3 179/1/3 181/1/3
f 182/1/4 177/1/4 175/1/4
f 177/1/4 182/1/4 180/1/4
f 182/1/5 176/1/5 181/1/5
f 176/1/5 182/1/5 175/1/5
f 179/1/6 182/1/6 181/1/6
f 182/1/6 179/1/6 180/1/6
f 185/1/1 184/1/1 183/1/1
f 184/1/1 185/1/1 186/1/1
f 185/1/2 187/1/2 186/1/2
f 187/1/2 185/1/2 188/1/2
f 187/1/3 184/1/3 186/1/3
f 184/1/3 187/1/3 189/1/3
f 190/1/4 185/1/4 183/1/4
f 185/1/4 190/1/4 188/1/4
f 190/1/5 184/1/5 189/1/5
f 184/1/5 190/1/5 183/1/5
f 187/1/6 190/1/6 189/1/6
f 190/1/6 187/1/6 188/1/6
f 193/1/1 192/1/1 191/1/1
f 192/1/1 193/1/1 194/1/1
f 193/1/2 195/1/2 194/1/2
f 195/1/2 193/1/2 196/1/2
f 195/1/3 192/1/3 194/1/3
f 192/1/3 195/1/3 187/1/3
f 188/1/4 193/1/4 191/1/4
f 193/1/4 188/1/4 196/1/4
f 188/1/5 192/1/5 187/1/5
f 192/1/5 188/1/5 191/1/5
f 195/1/6 188/1/6 187/1/6
f 188/1/6 195/1/6 196/1/6
f 199/1/1 198/1/1 197/1/1
f 198/1/1 199/1/1 200/1/1
f 199/1/2 176/1/2 200/1/2
f 176/1/2 199/1/2 175/1/2
f 176/1/3 198/1/3 200/1/3
f 198/1/3 176/1/3 201/1/3
f 202/1/4 199/1/4 197/1/4
f 199/1/4 202/1/4 175/1/4
f 202/1/5 198/1/5 201/1/5
f 198/1/5 202/1/5 197/1/5
f 176/1/6 202/1/6 201/1/6
f 202/1/6 176/1/6 175/1/6
f 205/1/1 204/1/1 203/1/1
f 204/1/1 205/1/1 206/1/1
f 205/1/2 207/1/2 206/1/2
f 207/1/2 205/1/2 208/1/2
f 207/1/3 204/1/3 206/1/3
f 204/1/3 207/1/3 209/1/3
f 210/1/4 205/1/4 203/1/4
f 205/1/4 210/1/4 208/1/4
f 210/1/5 204/1/5 209/1/5
f 204/1/5 210/1/5 203/1/5
f 207/1/6 210/1/6 209/1/6
f 210/1/6 207/1/6 208/1/6
f 183/1/1 212/1/1 211/1/1
f 212/1/1 183/1/1 184/1/1
f 183/1/2 213/1/2 184/1/2
f 213/1/2 183/1/2 214/1/2
f 213/1/3 212/1/3 184/1/3
f 212/1/3 213/1/3 215/1/3
f 216/1/4 183/1/4 211/1/4
f 183/1/4 216/1/4 214/1/4
f 216/1/5 212/1/5 215/1/5
f 212/1/5 216/1/5 211/1/5
f 213/1/6 216/1/6 215/1/6
f 216/1/6 213/1/6 214/1/6
f 219/1/1 218/1/1 217/1/1
f 218/1/1 219/1/1 220/1/1
f 219/1/2 206/1/2 220/1/2
f 206/1/2 219/1/2 205/1/2
f 206/1/3 218/1/3 220/1/3
f 218/1/3 206/1/3 221/1/3
f 222/1/4 219/1/4 217/1/4
f 219/1/4 222/1/4 205/1/4
f 222/1/5 218/1/5 221/1/5
f 218/1/5 222/1/5 217/1/5
f 206/1/6 222/1/6 221/1/6
f 222/1/6 206/1/6 205/1/6
f 225/1/1 224/1/1 223/1/1
f 224/1/1 225/1/1 226/1/1
f 225/1/2 170/1/2 226/1/2
f 170/1/2 225/1/2 169/1/2
f 170/1/3 224/1/3 226/1/3
f 224/1/3 170/1/3 220/1/3
f 219/1/4 225/1/4 223/1/4
f 225/1/4 219/1/4 169/1/4
f 219/1/5 224/1/5 220/1/5
f 224/1/5 219/1/5 223/1/5
f 170/1/6 219/1/6 220/1/6
f 219/1/6 170/1/6 169/1/6
f 125/1/1 140/1/1 139/1/1
f 140/1/1 125/1/1 126/1/1
f 125/1/2 141/1/2 126/1/2
f 141/1/2 125/1/2 142/1/2
f 141/1/3 140/1/3 126/1/3
f 140/1/3 141/1/3 135/1/3
f 136/1/4 125/1/4 139/1/4
f 125/1/4 136/1/4 142/1/4
f 136/1/5 140/1/5 135/1/5
f 140/1/5 136/1/5 139/1/5
f 141/1/6 136/1/6 135/1/6
f 136/1/6 141/1/6 142/1/6
f 193/1/1 192/1/1 191/1/1
f 192/1/1 193/1/1 194/1/1
f 193/1/2 195/1/2 194/1/2
f 195/1/2 193/1/2 196/1/2
f 195/1/3 192/1/3 194/1/3
f 192/1/3 195/1/3 187/1/3
f 188/1/4 193/1/4 191/1/4
f 193/1/4 188/1/4 196/1/4
f 188/1/5 192/1/5 187/1/5
f 192/1/5 188/1/5 191/1/5
f 195/1/6 188/1/6 187/1/6
f 188/1/6 195/1/6 196/1/6

